<svg xmlns="http://www.w3.org/2000/svg" xml:space="preserve" width="2624.907" height="487.933"><path d="M7204.44 2070.77 6070.17 3626.83h-301.62v-1984.5h186.12l-49 1783.05 1296.26-1780.14h139.63v1981.59h-186.11zM3535.69 3110.66c0 420.44-406.33 516.17-837.59 516.17h-478.33l19.63-159.32V1810.29l-19.63-165.05h298.46l-19.59 163.15v786.11h199.46l742.87-949.26h319.1l-757.84 969.38c299.11 45.31 533.46 176.24 533.46 496.04m-855.07-402.89h-181.98v805.73h181.98c346.51 0 563.41-73.04 563.41-402.84 0-329.86-216.9-402.89-563.41-402.89M15403.1 3464.98l19.6 161.84h-298.4l19.6-158V1809l-19.6-163.77h1214.5l49 160.09-984.7-39.22zM16827.8 2604.57l813.5-9.82v140.46l-813.5-9.81v780.56l965.1-39.21 49 160.08h-1293l19.6-168.51V1808.49l-19.6-163.24h1214.6l49 160.05-984.7-39.18zM14773.6 3626.78h-298.5l19.6-162.3V1811.04l-19.6-165.79h298.5l-19.6 164.29v1652.83zM12508.3 3058.71l-161.6-384.01-233.6-584.93-248.7 584.99-162.2 360.49-277.2 588.65h-271.6l279.4-632.31-133.3-316.89-233.7-584.93-248.6 584.99-162.2 360.49-277.2 588.65h-271.6l875.6-1981.58h43.8l483.9 1175.79 519.5-1175.79h43.8l815.5 1981.58h-134.6zM8253.82 3626.82h-545.56l19.59-162.05v-1657.7l-19.59-161.84h533.12c635.71 0 1171.65 362.58 1171.65 989.55 0 626.95-535.94 992.04-1159.21 992.04m47.38-1868.26h-314.07v1754.96h314.07c378.92 0 820.17-193.9 820.17-878.74 0-684.86-441.25-876.22-820.17-876.22M13328.8 3199.43l304.5-686.49h-578.8zm-69.2 163.73-705.7-1723.75h132.9l293.7 697.74 707.2 54.74 327.1-752.48h289.3l-878.7 1988.79h-282.9zM18525.2 3628.2l117.1-265.04-705.7-1723.75h132.9l293.7 697.74 707.3 54.73 327-752.47h289.3l-878.7 1988.79zm186.3-428.78 304.5-686.49h-578.8zM4610.39 3199.43l304.5-686.49h-578.83zm-69.17 163.73-705.75-1723.75h132.95l293.65 697.74 707.28 54.74 327.01-752.48h289.35L4706.98 3628.2h-282.92zM1907.05 1909.63v694.92h-726.6v-177.41l467.32 49v-589.17c-99.71-98.21-319.07-178.79-568.38-178.79-371.437 0-787.702 221.59-787.702 926.6 0 659.69 381.371 926.54 760.322 926.54 231.53 0 490.04-70.68 658-344.82l80.4 259.55c-158.22 112.96-434.3 183.48-738.4 183.48C476.117 3659.53 0 3261.72 0 2634.78S476.117 1610 1052.01 1610c406.3 0 712.95 135.98 855.04 299.63M5973.8 0h48.99v721.23h-48.99zM3338.17 473.941v-373.8h-84.56v520.371h77.33l179.25-246.25 179.98 246.25h77.36V100.141h-85.3v373.07l-171.28-236.012zM4288.56 312.699l-82.39 192.77-82.42-192.77zm-118.54 307.813h73.71l224.08-520.364h-88.19l-58.53 136.321h-229.87l-57.83-136.321h-87.45zM4828.4 91.352c-120.71 0-204.54 82.82-204.54 212.546v316.614h84.56V302.43c0-81.348 47.71-128.258 119.98-128.258 71.57 0 119.28 46.91 119.28 128.258v318.082h84.56V303.898c0-129.726-84.56-212.546-203.84-212.546M5264.89 620.5h84.57V100.141h-84.57zM13583.3 620.07h50.2v-9.48h-20.3v-64.449h-10.1v64.449h-19.8zm128.5 0-27.1-36.218-27.8 36.218h-8.5v-73.929h10.1v53.468c0 1.321-.2 2.762-.2 2.762s.6-1.16 1.1-1.59l23.2-30.453h4.1l23.1 31.25c.4.524 1.1 1.742 1.1 1.742s-.2-1.59-.2-2.91v-54.269h10.1v73.929ZM7393.55 85.75l136.69 330.539L7666.99 85.75l209.45 534.219h-54.18L7664.87 208.25 7529.5 531.02l-132.43-324.18-158.89 413.129h-54.08zm455.63 14.172h54.09l39.92 97.617h258.54l40.66-97.617h54.09L8072.77 634.23Zm223.59 418.16 110.47-275.652h-221.56ZM6546.91 99.922h54.18l39.92 97.617h258.58l40.56-97.617h54.06L6770.62 634.23Zm223.71 418.16L6881 242.43h-221.47ZM8647 100.012v45.558h-210.21v474.399h-49.06V100.012Zm225.92 0c163.06 0 276.39 106.828 276.39 263.508 0 155.269-111.92 256.449-273.54 256.449h-132.46V100.012Zm7.08 475.777c126.76 0 217.24-86.828 217.24-212.98 0-121.789-83.3-218.649-223.61-218.649h-81.16v431.629Zm884.6-212.269c0 155.968-113.3 270.011-269.98 270.011-150.33 0-264.24-115.449-264.24-268.601 0-153.828 115.44-269.98 267.77-269.98 149.6 0 266.45 117.562 266.45 268.57m-52.77 3.46c0-147.39-106.83-224.32-213.68-224.32-118.27 0-215.1 99.77-215.1 222.27 0 129.609 86.93 219.379 212.28 219.379 126.05 0 216.5-91.887 216.5-217.329m430.97 108.36c0-68.34-46.2-113.141-118.8-113.141h-87.76c8.59-8.59 225.16-259.371 227.26-262.187h61.9c-11.3 12.816-200.1 228.636-200.1 228.636h27.1c77.6 0 143.2 65.5 143.2 143.231 0 86.133-65.6 148.09-156.8 148.09h-163.73V100.012h49.15v474.367h101.88c80.5 0 116.7-57.609 116.7-99.039m675.3-375.328h54l39.9 97.527h258.7l40.4-97.527h54.2l-223.6 534.218zm223.6 418.07 110.4-275.551h-221.5zm416-424.543c76.1 0 135.9 57.09 135.9 138.992 0 69.02-42.6 113.199-112.5 154.539-58.4 34.18-98.3 54.789-98.3 116.852 0 51.258 35.7 81.156 74.9 81.156 34.1 0 62.7-12.816 93.3-39.828l30.6 36.301c-34.2 32.75-75.5 49.121-124.6 49.121-71.3 0-124.6-51.942-124.6-128.961 0-74.723 49-114.641 119.6-155.981 61.3-35.589 90.5-61.261 90.5-116.05 0-54.09-32.1-89.75-83.4-89.75-45.6 0-74.9 15.672-105.4 42.648l-30-35.566c38.6-35.59 78.4-53.473 134-53.473m496.2 480.84v45.59h-272.1v-45.59h111.2V100.012h49.9v474.367zm573.3-215c0 156.68-113.8 271.23-271.2 271.23-151.1 0-265.6-115.961-265.6-269.82 0-154.66 116-271.328 269.1-271.328 150.3 0 267.7 118.078 267.7 269.918m-53.1 3.519c0-148.089-107.3-225.449-214.6-225.449-118.8 0-216.2 100.199-216.2 223.34 0 130.223 87.3 220.43 213.4 220.43 126.5 0 217.4-92.36 217.4-218.321m428.4 112.532c0-68.34-46.4-113.231-119-113.231h-87.6c8.5-8.59 225-259.371 227.1-262.187h62c-11.3 12.816-200 228.738-200 228.738h26.9c77.7 0 143.2 65.398 143.2 143.129 0 86.223-65.5 148.191-156.7 148.191h-163.7V100.012h49v474.457h102c80.5 0 116.8-57.61 116.8-99.039m239.4 144.539h-49.2V99.922h49.2zm93.5-519.867h54.1l39.9 97.539h258.5l40.5-97.539h54.2L13459 634.23Zm223.6 417.98 110.3-275.551h-221.5zm845.7-42.742c0-68.34-46.4-113.141-119-113.141h-87.6c8.5-8.59 225-259.371 227.1-262.187h62c-11.3 12.816-200.1 228.636-200.1 228.636h27.1c77.6 0 143.3 65.5 143.3 143.231 0 86.133-65.7 148.09-156.9 148.09h-163.8V100.012h49.3v474.367h101.7c80.6 0 116.9-57.609 116.9-99.039m646.5-381.8c76.1 0 136 57.089 136 138.991 0 69.02-42.7 113.199-112.6 154.539-58.4 34.18-98.3 54.789-98.3 116.852 0 51.258 35.7 81.156 74.9 81.156 34.2 0 62.6-12.816 93.3-39.828l30.6 36.301c-34.1 32.75-75.5 49.121-124.6 49.121-71.3 0-124.6-51.942-124.6-128.961 0-74.723 49-114.641 119.6-155.981 61.3-35.589 90.5-61.261 90.5-116.05 0-54.09-32.1-89.75-83.4-89.75-45.6 0-74.9 15.672-105.4 42.648l-30-35.566c38.6-35.59 78.4-53.473 134-53.473m1470.7 480.84v45.59h-272.1v-45.59h111.2V100.012h49.9v474.367zm-1267-215c0-151.84 117.4-269.918 267.7-269.918 152.9 0 269.1 116.668 269.1 271.328 0 153.859-114.6 269.82-265.6 269.82-157.4 0-271.2-114.55-271.2-271.23m52.9 3.519c0 125.961 90.8 218.321 217.6 218.321 125.9 0 213.2-90.207 213.2-220.43 0-123.141-97.2-223.34-216-223.34-107.5 0-214.8 77.36-214.8 225.449M16037 475.43c0-68.34-46.4-113.231-119-113.231h-87.6c8.5-8.59 225-259.371 227.1-262.187h62c-11.3 12.816-200.1 228.738-200.1 228.738h26.9c77.8 0 143.3 65.398 143.3 143.129 0 86.223-65.5 148.191-156.7 148.191h-163.8V100.012h49.1v474.457h102c80.5 0 116.8-57.61 116.8-99.039M14744 97.86v45.261h-241.2v185.258h222.6v45.23h-222.6V576.77h227.5v45.261H14454V97.859Zm-4133.7 476.609v45.601h-278.5V100.012h49.1v226.617h175.9v45.562h-175.9v202.278z" style="fill:#fff;fill-opacity:1;fill-rule:nonzero;stroke:none" transform="matrix(.13333 0 0 -.13333 0 487.933)"/></svg>